<?xml version="1.0" encoding="UTF-8" standalone="no"?>
<!-- Created with Inkscape (http://www.inkscape.org/) -->

<svg
   xmlns:dc="http://purl.org/dc/elements/1.1/"
   xmlns:cc="http://creativecommons.org/ns#"
   xmlns:rdf="http://www.w3.org/1999/02/22-rdf-syntax-ns#"
   xmlns:svg="http://www.w3.org/2000/svg"
   xmlns="http://www.w3.org/2000/svg"
   xmlns:sodipodi="http://sodipodi.sourceforge.net/DTD/sodipodi-0.dtd"
   xmlns:inkscape="http://www.inkscape.org/namespaces/inkscape"
   width="361.96875"
   height="131.60802"
   id="svg2"
   version="1.1"
   inkscape:version="0.48.2 r9819"
   sodipodi:docname="Nooskewl.svg">
  <defs
     id="defs4" />
  <sodipodi:namedview
     id="base"
     pagecolor="#ffffff"
     bordercolor="#666666"
     borderopacity="1.0"
     inkscape:pageopacity="0.0"
     inkscape:pageshadow="2"
     inkscape:zoom="0.35"
     inkscape:cx="-276.00893"
     inkscape:cy="-75.849142"
     inkscape:document-units="px"
     inkscape:current-layer="layer1"
     showgrid="false"
     inkscape:window-width="1280"
     inkscape:window-height="752"
     inkscape:window-x="0"
     inkscape:window-y="0"
     inkscape:window-maximized="1"
     fit-margin-top="0"
     fit-margin-left="0"
     fit-margin-right="0"
     fit-margin-bottom="0" />
  <metadata
     id="metadata7">
    <rdf:RDF>
      <cc:Work
         rdf:about="">
        <dc:format>image/svg+xml</dc:format>
        <dc:type
           rdf:resource="http://purl.org/dc/dcmitype/StillImage" />
        <dc:title></dc:title>
      </cc:Work>
    </rdf:RDF>
  </metadata>
  <g
     inkscape:label="Layer 1"
     inkscape:groupmode="layer"
     id="layer1"
     transform="translate(-79.58036,-96.333594)">
    <text
       xml:space="preserve"
       style="font-size:100px;font-style:normal;font-variant:normal;font-weight:normal;font-stretch:normal;text-align:start;line-height:125%;letter-spacing:0px;word-spacing:0px;writing-mode:lr-tb;text-anchor:start;fill:#ffd800;fill-opacity:1;stroke:#000000;stroke-opacity:1;font-family:BadaBoom BB;-inkscape-font-specification:BadaBoom BB"
       x="71.428574"
       y="292.36218"
       id="text2985"
       sodipodi:linespacing="125%"><tspan
         sodipodi:role="line"
         id="tspan2987"
         x="71.428574"
         y="292.36218" /></text>
    <text
       xml:space="preserve"
       style="font-size:100px;font-style:normal;font-variant:normal;font-weight:normal;font-stretch:normal;text-align:start;line-height:125%;letter-spacing:0px;word-spacing:0px;writing-mode:lr-tb;text-anchor:start;fill:#000000;fill-opacity:1;stroke:none;font-family:BadaBoom BB;-inkscape-font-specification:BadaBoom BB"
       x="111.42857"
       y="223.79076"
       id="text3757"
       sodipodi:linespacing="125%"><tspan
         sodipodi:role="line"
         id="tspan3759"
         x="111.42857"
         y="223.79076" /></text>
    <g
       transform="matrix(1,-0.14054029,0,1,-62.85714,-188.57143)"
       style="font-size:100px;font-style:normal;font-variant:normal;font-weight:normal;font-stretch:normal;text-align:start;line-height:125%;letter-spacing:0px;word-spacing:0px;writing-mode:lr-tb;text-anchor:start;fill:#000000;fill-opacity:1;stroke:#000000;stroke-width:3.5;stroke-miterlimit:4;stroke-opacity:1;font-family:BadaBoom BB;-inkscape-font-specification:BadaBoom BB"
       id="text3761">
      <path
         d="m 157.5558,360.61322 16.89453,-3.41797 c -0.13023,2.0183 -0.19534,4.88288 -0.19531,8.59375 -3e-5,8.85422 0.29294,16.63416 0.87891,23.33985 0.32549,3.84118 0.81377,6.93362 1.46484,9.27734 l 6.64063,-38.08594 16.79687,-3.125 c -6.77088,26.10682 -11.19796,48.73049 -13.28125,67.8711 l -15.42969,4.29687 c -0.0651,-0.13021 -0.4883,-1.26953 -1.26953,-3.41797 l -5.07812,-14.45312 c -0.84637,-2.34373 -1.33465,-3.84113 -1.46485,-4.49219 -1.3672,7.68231 -2.44142,15.13672 -3.22265,22.36328 l -15.625,4.6875 12.89062,-73.4375"
         style="fill:#ffd800;fill-opacity:1"
         id="path3807"
         inkscape:connector-curvature="0" />
      <path
         d="m 228.74721,352.89838 c 6.901,7e-5 11.78381,3.84121 14.64844,11.52343 1.49734,3.97142 2.24604,8.33339 2.24609,13.08594 -5e-5,4.55734 -0.68365,9.50525 -2.05078,14.84375 -2.4089,9.11461 -6.57557,17.51304 -12.5,25.19531 -7.22659,9.37501 -14.87633,14.0625 -22.94922,14.0625 -6.96615,0 -11.91407,-3.84114 -14.84375,-11.52343 -1.43229,-3.77603 -2.14844,-8.0078 -2.14844,-12.69532 0,-4.62237 0.71615,-9.63538 2.14844,-15.03906 2.40885,-9.17964 6.54296,-17.61062 12.40234,-25.29297 7.22655,-9.44003 14.90883,-14.16008 23.04688,-14.16015 m -3.51563,24.21875 c -3.58075,5e-5 -7.22658,2.92973 -10.9375,8.78906 -2.99481,4.62243 -5.07814,9.14717 -6.25,13.57422 -0.58595,2.34378 -0.87892,4.45966 -0.8789,6.34765 -2e-5,2.6693 0.65102,4.85028 1.95312,6.54297 1.49738,1.88804 3.58071,2.83205 6.25,2.83203 3.64581,2e-5 6.93357,-1.92055 9.86328,-5.76171 2.34372,-3.05988 4.03643,-6.67316 5.07813,-10.83985 1.23694,-4.88278 1.49736,-9.70048 0.78125,-14.45312 -0.78129,-4.68745 -2.73441,-7.0312 -5.85938,-7.03125"
         style="stroke:#ffd800;stroke-opacity:1"
         id="path3809"
         inkscape:connector-curvature="0" />
      <path
         d="m 277.18471,352.89838 c 6.901,7e-5 11.78381,3.84121 14.64844,11.52343 1.49734,3.97142 2.24604,8.33339 2.24609,13.08594 -5e-5,4.55734 -0.68365,9.50525 -2.05078,14.84375 -2.4089,9.11461 -6.57557,17.51304 -12.5,25.19531 -7.22659,9.37501 -14.87633,14.0625 -22.94922,14.0625 -6.96615,0 -11.91407,-3.84114 -14.84375,-11.52343 -1.43229,-3.77603 -2.14844,-8.0078 -2.14844,-12.69532 0,-4.62237 0.71615,-9.63538 2.14844,-15.03906 2.40885,-9.17964 6.54296,-17.61062 12.40234,-25.29297 7.22655,-9.44003 14.90883,-14.16008 23.04688,-14.16015 m -3.51563,24.21875 c -3.58075,5e-5 -7.22658,2.92973 -10.9375,8.78906 -2.99481,4.62243 -5.07814,9.14717 -6.25,13.57422 -0.58595,2.34378 -0.87892,4.45966 -0.8789,6.34765 -2e-5,2.6693 0.65102,4.85028 1.95312,6.54297 1.49738,1.88804 3.58071,2.83205 6.25,2.83203 3.64581,2e-5 6.93357,-1.92055 9.86328,-5.76171 2.34372,-3.05988 4.03643,-6.67316 5.07813,-10.83985 1.23694,-4.88278 1.49736,-9.70048 0.78125,-14.45312 -0.78129,-4.68745 -2.73441,-7.0312 -5.85938,-7.03125"
         style="stroke:#ffd800;stroke-opacity:1"
         id="path3811"
         inkscape:connector-curvature="0" />
      <path
         d="m 333.72768,377.60541 c -2.08338,0.7813 -4.55733,1.72531 -7.42188,2.83203 l -7.32422,2.83203 c -3e-5,-3.05985 -0.84638,-4.58979 -2.53906,-4.58984 -2.40888,5e-5 -4.81773,1.36723 -7.22656,4.10156 -1.69273,2.01827 -2.40887,3.9714 -2.14844,5.85937 0.1953,1.23702 1.43227,1.85551 3.71094,1.85547 1.23696,4e-5 2.86456,-0.19527 4.88281,-0.58593 2.79945,-0.5859 5.27341,-0.87887 7.42188,-0.87891 5.46871,4e-5 8.65881,1.88806 9.57031,5.66406 0.26037,1.17191 0.39058,2.40889 0.39062,3.71094 -4e-5,4.16669 -1.56254,8.65888 -4.6875,13.47656 -4.03649,6.31512 -9.70055,11.6211 -16.99218,15.91797 -3.84117,2.27865 -7.61721,3.41797 -11.32813,3.41797 -3.38542,0 -6.70573,-0.94401 -9.96094,-2.83203 1.62761,-3.90625 4.23177,-9.66796 7.8125,-17.28516 2.08333,1.43231 4.29687,2.14845 6.64063,2.14844 1.04165,1e-5 2.11587,-0.16275 3.22265,-0.48828 2.01821,-0.52082 3.93879,-1.26952 5.76172,-2.2461 2.60414,-1.43227 3.90623,-2.89711 3.90625,-4.39453 -2e-5,-1.62758 -1.33466,-2.44138 -4.0039,-2.4414 -1.82294,2e-5 -4.49221,0.39065 -8.00782,1.17187 -3.45053,0.71617 -6.08724,1.07424 -7.91015,1.07422 -2.40886,2e-5 -4.26433,-0.45571 -5.56641,-1.36719 -2.53906,-1.69268 -3.58073,-4.3294 -3.125,-7.91015 0.84636,-7.22653 5.5013,-15.5924 13.96485,-25.09766 8.65883,-9.76556 16.11325,-14.87623 22.36328,-15.33203 6.05464,-0.39055 9.08198,4.16673 9.08203,13.67187 -5e-5,2.27871 -0.16281,4.85032 -0.48828,7.71485"
         style="fill:#ffd800;fill-opacity:1;stroke:#000000;stroke-width:3.5;stroke-miterlimit:4;stroke-opacity:1"
         id="path3813"
         inkscape:connector-curvature="0" />
      <path
         d="m 342.32143,360.32025 16.79687,-3.125 c -1.49742,5.72923 -2.60419,10.25397 -3.32031,13.57422 5.66403,-4.94785 10.83981,-9.70045 15.52734,-14.25781 l 12.30469,8.00781 -19.23828,17.08984 10.83984,39.7461 -17.67578,9.375 -6.83594,-36.81641 c -2.01824,10.4818 -3.61329,20.8659 -4.78515,31.15235 l -15.52735,4.29687 11.91407,-69.04297"
         style="fill:#ffd800;fill-opacity:1;stroke:#000000;stroke-width:3.5;stroke-miterlimit:4;stroke-opacity:1"
         id="path3815"
         inkscape:connector-curvature="0" />
      <path
         d="m 398.1808,374.87103 c -0.52085,1.88808 -0.97658,3.74354 -1.36719,5.56641 l -1.07421,5.37109 15.625,-3.32031 -0.87891,13.47656 c -7.4219,1.30212 -13.24872,2.44144 -17.48047,3.41797 -0.26043,1.30211 -0.4883,2.6042 -0.68359,3.90625 l -0.6836,3.8086 18.16407,-2.63672 -1.26954,18.16406 c -9.37502,0.78125 -21.25652,3.02735 -35.64453,6.73828 l 11.6211,-70.01953 32.51953,-4.6875 -1.26953,18.06641 c -6.38024,0.58599 -12.23961,1.30213 -17.57813,2.14843"
         style="fill:#ffd800;fill-opacity:1;stroke:#000000;stroke-width:3.5;stroke-miterlimit:4;stroke-opacity:1"
         id="path3817"
         inkscape:connector-curvature="0" />
      <path
         d="m 480.60268,356.60931 c -8.78912,23.30734 -15.33209,46.02868 -19.62891,68.16407 l -21.875,3.71093 3.61328,-35.83984 -9.08203,33.20313 -20.80078,3.80859 c 3.125,-24.47914 4.65494,-46.94006 4.58984,-67.38281 l 18.55469,-3.51563 -3.80859,42.77344 12.69531,-47.46094 9.96094,-1.46484 -6.73828,60.2539 13.57421,-53.32031 18.94532,-2.92969"
         style="fill:#ffd800;fill-opacity:1;stroke:#000000;stroke-width:3.5;stroke-miterlimit:4;stroke-opacity:1"
         id="path3819"
         inkscape:connector-curvature="0" />
      <path
         d="m 479.33315,360.32025 16.79687,-3.125 c -4.68752,18.03391 -8.3008,34.66801 -10.83984,49.90235 l 17.1875,-2.63672 -1.46485,18.16406 c -8.85418,0.78125 -20.08464,3.02735 -33.6914,6.73828 l 12.01172,-69.04297"
         style="fill:#ffd800;fill-opacity:1;stroke:#000000;stroke-width:3.5;stroke-miterlimit:4;stroke-opacity:1"
         id="path3821"
         inkscape:connector-curvature="0" />
    </g>
  </g>
</svg>
